<svg width="24" height="24" xmlns="http://www.w3.org/2000/svg" stroke="null" style="vector-effect: non-scaling-stroke;">
 <!-- Created with Method Draw - http://github.com/duopixel/Method-Draw/ -->
 <g>
  <title>background</title>
  <rect fill="none" id="canvas_background" height="26" width="26" y="-1" x="-1"/>
 </g>
 <g>
  <title>Layer 1</title>
  <path stroke="#1A333F" id="svg_1" d="m1.054724,7.441409l6.411561,-6.411559l9.067429,0l6.411561,6.411559l0,9.067428l-6.411561,6.411559l-9.067429,0l-6.411561,-6.411559l0,-9.067428z" stroke-width="2" fill="#ffffff"/>
  <path stroke="#1A333F" transform="rotate(45 12.115946769714357,11.905291557312012) " id="svg_3" d="m-1.247726,11.905291l6.013653,-6.037234l0,3.018618l4.343194,0l0,-4.360224l-3.006828,0l6.013653,-6.037234l6.013653,6.037234l-3.006826,0l0,4.360224l4.343196,0l0,-3.018618l6.013651,6.037234l-6.013651,6.037233l0,-3.018616l-4.343196,0l0,4.360226l3.006826,0l-6.013653,6.037231l-6.013653,-6.037231l3.006828,0l0,-4.360226l-4.343194,0l0,3.018616l-6.013653,-6.037233z" stroke-width="2" fill="#ffffff"/>
 </g>
</svg>