<?xml version="1.0" standalone="no"?>
<!DOCTYPE svg PUBLIC "-//W3C//DTD SVG 20010904//EN"
 "http://www.w3.org/TR/2001/REC-SVG-20010904/DTD/svg10.dtd">
<svg version="1.0" xmlns="http://www.w3.org/2000/svg"
 width="700.000000pt" height="700.000000pt" viewBox="0 0 700.000000 700.000000"
 preserveAspectRatio="xMidYMid meet">
<metadata>
Created by potrace 1.11, written by Peter Selinger 2001-2013
</metadata>
<g transform="translate(0.000000,700.000000) scale(0.100000,-0.100000)"
fill="#000000" stroke="none">
<path d="M1850 6785 l-205 -205 -576 0 -576 0 -6 -227 c-4 -124 -7 -386 -7
-582 l0 -356 -235 -235 -235 -235 0 -1439 0 -1440 236 -237 236 -236 -8 -562
-7 -561 569 0 569 0 225 -225 225 -225 1445 0 1445 0 230 230 230 230 587 0
588 0 0 587 0 587 205 206 205 206 0 1440 0 1439 -200 200 -200 200 0 622 0
623 -623 0 -622 0 -200 200 -200 200 -1445 0 -1445 0 -205 -205z m1935 -875
l240 -240 -243 -243 -242 -242 -242 242 -243 243 240 240 c132 132 242 240
245 240 3 0 113 -108 245 -240z m2225 -528 c0 -341 -3 -674 -7 -741 l-6 -123
-161 161 -161 161 -655 -655 -655 -655 655 -655 655 -655 162 162 163 163 0
-743 0 -742 -742 0 -743 0 163 163 162 162 -655 655 -655 655 -655 -655 -655
-655 162 -162 163 -163 -375 0 c-206 0 -540 -3 -743 -7 l-367 -6 0 749 0 749
165 -165 165 -165 657 657 657 657 -654 650 -655 649 -162 -161 -163 -162 0
743 0 742 742 0 743 0 -163 -163 -162 -162 653 -653 652 -652 655 655 655 655
-165 165 -165 165 748 0 747 0 0 -618z m-87 -1610 l237 -237 -243 -243 -242
-242 -240 240 -239 240 34 37 c90 98 436 443 445 443 6 0 117 -107 248 -238z
m-4281 -9 l238 -238 -242 -242 -243 -243 -242 242 -243 243 237 237 c131 131
242 238 248 238 5 0 117 -107 247 -237z m2133 -2133 l240 -240 -243 -243 -242
-242 -241 241 -241 241 237 242 c131 132 240 241 244 241 3 0 114 -108 246
-240z"/>
</g>
</svg>
